<?xml version="1.0" encoding="UTF-8"?>
<svg xmlns:xhtml="http://www.w3.org/1999/xhtml" xmlns:xlink="http://www.w3.org/1999/xlink" xmlns="http://www.w3.org/2000/svg" id="mermaid-svg-15" width="100%" style="max-width: 100%;" viewBox="-28.55574951171875 -28.55574951171875 1204.9393798828123 738.2264892578125" height="100%"><style>#mermaid-svg-15{font-family:"trebuchet ms",verdana,arial,sans-serif;font-size:16px;fill:#ccc;}@keyframes edge-animation-frame{from{stroke-dashoffset:0;}}@keyframes dash{to{stroke-dashoffset:0;}}#mermaid-svg-15 .edge-animation-slow{stroke-dasharray:9,5!important;stroke-dashoffset:900;animation:dash 50s linear infinite;stroke-linecap:round;}#mermaid-svg-15 .edge-animation-fast{stroke-dasharray:9,5!important;stroke-dashoffset:900;animation:dash 20s linear infinite;stroke-linecap:round;}#mermaid-svg-15 .error-icon{fill:#a44141;}#mermaid-svg-15 .error-text{fill:#ddd;stroke:#ddd;}#mermaid-svg-15 .edge-thickness-normal{stroke-width:1px;}#mermaid-svg-15 .edge-thickness-thick{stroke-width:3.5px;}#mermaid-svg-15 .edge-pattern-solid{stroke-dasharray:0;}#mermaid-svg-15 .edge-thickness-invisible{stroke-width:0;fill:none;}#mermaid-svg-15 .edge-pattern-dashed{stroke-dasharray:3;}#mermaid-svg-15 .edge-pattern-dotted{stroke-dasharray:2;}#mermaid-svg-15 .marker{fill:lightgrey;stroke:lightgrey;}#mermaid-svg-15 .marker.cross{stroke:lightgrey;}#mermaid-svg-15 svg{font-family:"trebuchet ms",verdana,arial,sans-serif;font-size:16px;}#mermaid-svg-15 p{margin:0;}#mermaid-svg-15 .edge{stroke-width:3;}#mermaid-svg-15 .section--1 rect,#mermaid-svg-15 .section--1 path,#mermaid-svg-15 .section--1 circle,#mermaid-svg-15 .section--1 polygon,#mermaid-svg-15 .section--1 path{fill:#1f2020;}#mermaid-svg-15 .section--1 text{fill:lightgrey;}#mermaid-svg-15 .node-icon--1{font-size:40px;color:lightgrey;}#mermaid-svg-15 .section-edge--1{stroke:#1f2020;}#mermaid-svg-15 .edge-depth--1{stroke-width:17;}#mermaid-svg-15 .section--1 line{stroke:#e0dfdf;stroke-width:3;}#mermaid-svg-15 .disabled,#mermaid-svg-15 .disabled circle,#mermaid-svg-15 .disabled text{fill:lightgray;}#mermaid-svg-15 .disabled text{fill:#efefef;}#mermaid-svg-15 .section-0 rect,#mermaid-svg-15 .section-0 path,#mermaid-svg-15 .section-0 circle,#mermaid-svg-15 .section-0 polygon,#mermaid-svg-15 .section-0 path{fill:#0b0000;}#mermaid-svg-15 .section-0 text{fill:lightgrey;}#mermaid-svg-15 .node-icon-0{font-size:40px;color:lightgrey;}#mermaid-svg-15 .section-edge-0{stroke:#0b0000;}#mermaid-svg-15 .edge-depth-0{stroke-width:14;}#mermaid-svg-15 .section-0 line{stroke:#f4ffff;stroke-width:3;}#mermaid-svg-15 .disabled,#mermaid-svg-15 .disabled circle,#mermaid-svg-15 .disabled text{fill:lightgray;}#mermaid-svg-15 .disabled text{fill:#efefef;}#mermaid-svg-15 .section-1 rect,#mermaid-svg-15 .section-1 path,#mermaid-svg-15 .section-1 circle,#mermaid-svg-15 .section-1 polygon,#mermaid-svg-15 .section-1 path{fill:#4d1037;}#mermaid-svg-15 .section-1 text{fill:lightgrey;}#mermaid-svg-15 .node-icon-1{font-size:40px;color:lightgrey;}#mermaid-svg-15 .section-edge-1{stroke:#4d1037;}#mermaid-svg-15 .edge-depth-1{stroke-width:11;}#mermaid-svg-15 .section-1 line{stroke:#b2efc8;stroke-width:3;}#mermaid-svg-15 .disabled,#mermaid-svg-15 .disabled circle,#mermaid-svg-15 .disabled text{fill:lightgray;}#mermaid-svg-15 .disabled text{fill:#efefef;}#mermaid-svg-15 .section-2 rect,#mermaid-svg-15 .section-2 path,#mermaid-svg-15 .section-2 circle,#mermaid-svg-15 .section-2 polygon,#mermaid-svg-15 .section-2 path{fill:#3f5258;}#mermaid-svg-15 .section-2 text{fill:lightgrey;}#mermaid-svg-15 .node-icon-2{font-size:40px;color:lightgrey;}#mermaid-svg-15 .section-edge-2{stroke:#3f5258;}#mermaid-svg-15 .edge-depth-2{stroke-width:8;}#mermaid-svg-15 .section-2 line{stroke:#c0ada7;stroke-width:3;}#mermaid-svg-15 .disabled,#mermaid-svg-15 .disabled circle,#mermaid-svg-15 .disabled text{fill:lightgray;}#mermaid-svg-15 .disabled text{fill:#efefef;}#mermaid-svg-15 .section-3 rect,#mermaid-svg-15 .section-3 path,#mermaid-svg-15 .section-3 circle,#mermaid-svg-15 .section-3 polygon,#mermaid-svg-15 .section-3 path{fill:#4f2f1b;}#mermaid-svg-15 .section-3 text{fill:lightgrey;}#mermaid-svg-15 .node-icon-3{font-size:40px;color:lightgrey;}#mermaid-svg-15 .section-edge-3{stroke:#4f2f1b;}#mermaid-svg-15 .edge-depth-3{stroke-width:5;}#mermaid-svg-15 .section-3 line{stroke:#b0d0e4;stroke-width:3;}#mermaid-svg-15 .disabled,#mermaid-svg-15 .disabled circle,#mermaid-svg-15 .disabled text{fill:lightgray;}#mermaid-svg-15 .disabled text{fill:#efefef;}#mermaid-svg-15 .section-4 rect,#mermaid-svg-15 .section-4 path,#mermaid-svg-15 .section-4 circle,#mermaid-svg-15 .section-4 polygon,#mermaid-svg-15 .section-4 path{fill:#6e0a0a;}#mermaid-svg-15 .section-4 text{fill:lightgrey;}#mermaid-svg-15 .node-icon-4{font-size:40px;color:lightgrey;}#mermaid-svg-15 .section-edge-4{stroke:#6e0a0a;}#mermaid-svg-15 .edge-depth-4{stroke-width:2;}#mermaid-svg-15 .section-4 line{stroke:#91f5f5;stroke-width:3;}#mermaid-svg-15 .disabled,#mermaid-svg-15 .disabled circle,#mermaid-svg-15 .disabled text{fill:lightgray;}#mermaid-svg-15 .disabled text{fill:#efefef;}#mermaid-svg-15 .section-5 rect,#mermaid-svg-15 .section-5 path,#mermaid-svg-15 .section-5 circle,#mermaid-svg-15 .section-5 polygon,#mermaid-svg-15 .section-5 path{fill:#3b0048;}#mermaid-svg-15 .section-5 text{fill:lightgrey;}#mermaid-svg-15 .node-icon-5{font-size:40px;color:lightgrey;}#mermaid-svg-15 .section-edge-5{stroke:#3b0048;}#mermaid-svg-15 .edge-depth-5{stroke-width:-1;}#mermaid-svg-15 .section-5 line{stroke:#c4ffb7;stroke-width:3;}#mermaid-svg-15 .disabled,#mermaid-svg-15 .disabled circle,#mermaid-svg-15 .disabled text{fill:lightgray;}#mermaid-svg-15 .disabled text{fill:#efefef;}#mermaid-svg-15 .section-6 rect,#mermaid-svg-15 .section-6 path,#mermaid-svg-15 .section-6 circle,#mermaid-svg-15 .section-6 polygon,#mermaid-svg-15 .section-6 path{fill:#995a01;}#mermaid-svg-15 .section-6 text{fill:lightgrey;}#mermaid-svg-15 .node-icon-6{font-size:40px;color:lightgrey;}#mermaid-svg-15 .section-edge-6{stroke:#995a01;}#mermaid-svg-15 .edge-depth-6{stroke-width:-4;}#mermaid-svg-15 .section-6 line{stroke:#66a5fe;stroke-width:3;}#mermaid-svg-15 .disabled,#mermaid-svg-15 .disabled circle,#mermaid-svg-15 .disabled text{fill:lightgray;}#mermaid-svg-15 .disabled text{fill:#efefef;}#mermaid-svg-15 .section-7 rect,#mermaid-svg-15 .section-7 path,#mermaid-svg-15 .section-7 circle,#mermaid-svg-15 .section-7 polygon,#mermaid-svg-15 .section-7 path{fill:#154706;}#mermaid-svg-15 .section-7 text{fill:lightgrey;}#mermaid-svg-15 .node-icon-7{font-size:40px;color:lightgrey;}#mermaid-svg-15 .section-edge-7{stroke:#154706;}#mermaid-svg-15 .edge-depth-7{stroke-width:-7;}#mermaid-svg-15 .section-7 line{stroke:#eab8f9;stroke-width:3;}#mermaid-svg-15 .disabled,#mermaid-svg-15 .disabled circle,#mermaid-svg-15 .disabled text{fill:lightgray;}#mermaid-svg-15 .disabled text{fill:#efefef;}#mermaid-svg-15 .section-8 rect,#mermaid-svg-15 .section-8 path,#mermaid-svg-15 .section-8 circle,#mermaid-svg-15 .section-8 polygon,#mermaid-svg-15 .section-8 path{fill:#161722;}#mermaid-svg-15 .section-8 text{fill:lightgrey;}#mermaid-svg-15 .node-icon-8{font-size:40px;color:lightgrey;}#mermaid-svg-15 .section-edge-8{stroke:#161722;}#mermaid-svg-15 .edge-depth-8{stroke-width:-10;}#mermaid-svg-15 .section-8 line{stroke:#e9e8dd;stroke-width:3;}#mermaid-svg-15 .disabled,#mermaid-svg-15 .disabled circle,#mermaid-svg-15 .disabled text{fill:lightgray;}#mermaid-svg-15 .disabled text{fill:#efefef;}#mermaid-svg-15 .section-9 rect,#mermaid-svg-15 .section-9 path,#mermaid-svg-15 .section-9 circle,#mermaid-svg-15 .section-9 polygon,#mermaid-svg-15 .section-9 path{fill:#00296f;}#mermaid-svg-15 .section-9 text{fill:lightgrey;}#mermaid-svg-15 .node-icon-9{font-size:40px;color:lightgrey;}#mermaid-svg-15 .section-edge-9{stroke:#00296f;}#mermaid-svg-15 .edge-depth-9{stroke-width:-13;}#mermaid-svg-15 .section-9 line{stroke:#ffd690;stroke-width:3;}#mermaid-svg-15 .disabled,#mermaid-svg-15 .disabled circle,#mermaid-svg-15 .disabled text{fill:lightgray;}#mermaid-svg-15 .disabled text{fill:#efefef;}#mermaid-svg-15 .section-10 rect,#mermaid-svg-15 .section-10 path,#mermaid-svg-15 .section-10 circle,#mermaid-svg-15 .section-10 polygon,#mermaid-svg-15 .section-10 path{fill:#01629c;}#mermaid-svg-15 .section-10 text{fill:lightgrey;}#mermaid-svg-15 .node-icon-10{font-size:40px;color:lightgrey;}#mermaid-svg-15 .section-edge-10{stroke:#01629c;}#mermaid-svg-15 .edge-depth-10{stroke-width:-16;}#mermaid-svg-15 .section-10 line{stroke:#fe9d63;stroke-width:3;}#mermaid-svg-15 .disabled,#mermaid-svg-15 .disabled circle,#mermaid-svg-15 .disabled text{fill:lightgray;}#mermaid-svg-15 .disabled text{fill:#efefef;}#mermaid-svg-15 .section-root rect,#mermaid-svg-15 .section-root path,#mermaid-svg-15 .section-root circle,#mermaid-svg-15 .section-root polygon{fill:hsl(180, 1.5873015873%, 48.3529411765%);}#mermaid-svg-15 .section-root text{fill:#2c2c2c;}#mermaid-svg-15 .icon-container{height:100%;display:flex;justify-content:center;align-items:center;}#mermaid-svg-15 .edge{fill:none;}#mermaid-svg-15 .mindmap-node-label{dy:1em;alignment-baseline:middle;text-anchor:middle;dominant-baseline:middle;text-align:center;}#mermaid-svg-15 :root{--mermaid-font-family:"trebuchet ms",verdana,arial,sans-serif;}</style><g/><g class="mindmap-edges"><path d="M 668.9716270102604,300.8064295853347 L 608.631348430977,290.83684945967474 L548.2910698516937,280.8672693340148" class="edge section-edge-0 edge-depth-1"/><path d="M 1013.8578211468056,217.94453844907042 L 1029.0390060914945,187.99900873907458 L1044.2201910361832,158.05347902907874" class="edge section-edge-0 edge-depth-3"/><path d="M 1020.4291049235995,238.15532558323042 L 1055.4437555961472,256.0687918799258 L1090.458406268695,273.98225817662126" class="edge section-edge-0 edge-depth-3"/><path d="M 883.5323534711209,264.7259344573329 L 938.0637489175763,249.9822125940661 L992.5951443640316,235.2384907307993" class="edge section-edge-0 edge-depth-2"/><path d="M 873.0256643195324,254.1767649267618 L 881.4414425885047,223.54118063895314 L889.857220857477,192.90559635114448" class="edge section-edge-0 edge-depth-2"/><path d="M 698.5159337057129,300.49725145261147 L 776.4116288589602,285.94627571396643 L854.3073240122075,271.3952999753214" class="edge section-edge-0 edge-depth-1"/><path d="M 692.5326629035065,291.0765200523136 L 713.8002526242814,261.5233840230468 L735.0678423450562,231.97024799378005" class="edge section-edge-0 edge-depth-1"/><path d="M 684.3993967161898,318.2384497926803 L 685.5542886482305,345.7812508777365 L686.7091805802711,373.32405196279274" class="edge section-edge-0 edge-depth-1"/><path d="M 698.3044216572761,306.9636628425912 L 776.6021500789568,326.96200547161084 L854.8998785006376,346.9603481006305" class="edge section-edge-0 edge-depth-1"/><path d="M 508.3432088502795,348.7011670855469 L 588.7968021905622,327.8573787612122 L669.2503955308448,307.0135904368775" class="edge section-edge-0 edge-depth-0"/><path d="M 642.5978351705569,456.6461845192897 L 700.7744400915776,480.49571637607596 L758.9510450125983,504.3452482328622" class="edge section-edge-1 edge-depth-1"/><path d="M 834.4555985951291,449.88005968473135 L 885.6964106539098,473.72396250636336 L936.9372227126904,497.5678653279954" class="edge section-edge-1 edge-depth-2"/><path d="M 835.6128320622302,440.8623164726585 L 898.4221415131447,429.4155867537944 L961.2314509640594,417.9688570349303" class="edge section-edge-1 edge-depth-2"/><path d="M 643.7076887610082,450.3788168318862 L 724.7873554647916,447.25408911415457 L805.8670221685751,444.12936139642295" class="edge section-edge-1 edge-depth-1"/><path d="M 615.331376799308,457.7223043710563 L 568.7561850937501,481.2607800252863 L522.1809933881922,504.7992556795163" class="edge section-edge-1 edge-depth-1"/><path d="M 613.74367895299,450.0931781902827 L 546.9851873065209,446.2446496996447 L480.22669566005175,442.3961212090067" class="edge section-edge-1 edge-depth-1"/><path d="M 656.7796099983934,559.097584274195 L 735.9356912162762,576.2900228974241 L815.0917724341591,593.4824615206533" class="edge section-edge-1 edge-depth-2"/><path d="M 627.7789654848531,560.3065118100154 L 543.7892843380343,586.0300262134792 L459.7996031912156,611.753540616943" class="edge section-edge-1 edge-depth-2"/><path d="M 647.3090432311589,569.9882401632791 L 658.9477029465392,601.5644312634064 L670.5863626619195,633.1406223635337" class="edge section-edge-1 edge-depth-2"/><path d="M 630.618815898475,465.83565278831617 L 635.4200941912244,503.4351681965352 L640.2213724839738,541.0346836047542" class="edge section-edge-1 edge-depth-1"/><path d="M 505.9371051576021,361.3084306972943 L 561.2707166876994,401.70980568365565 L616.6043282177967,442.111180670017" class="edge section-edge-1 edge-depth-0"/><path d="M 536.9596524683257,176.06695693149163 L 572.4376868254413,198.59119986595 L607.915721182557,221.1154428004084" class="edge section-edge-2 edge-depth-2"/><path d="M 534.3376634196079,156.8840825162913 L 560.8990929284545,127.4084901018638 L587.460522437301,97.9328976874363" class="edge section-edge-2 edge-depth-2"/><path d="M 539.1474608183148,165.91993717288955 L 592.7128409981779,158.3194196320458 L646.2782211780409,150.71890209120204" class="edge section-edge-2 edge-depth-2"/><path d="M 408.5479760490963,229.83931769312034 L 459.80634311409267,202.46622433101427 L511.06471017908905,175.0931309689082" class="edge section-edge-2 edge-depth-1"/><path d="M 236.03623370605047,158.59981120417393 L 217.1683682688069,128.92912038243836 L198.3005028315633,99.25842956070278" class="edge section-edge-2 edge-depth-2"/><path d="M 229.29322461940964,173.7463832606269 L 176.84007577840953,182.57262976332166 L124.38692693740941,191.3988762660164" class="edge section-edge-2 edge-depth-2"/><path d="M 229.61103831059788,167.3207698472848 L 158.617458978834,148.01259173204065 L87.62387964707014,128.7044136167965" class="edge section-edge-2 edge-depth-2"/><path d="M 381.5569321252591,230.93236227770004 L 319.70086938676053,204.08128604735148 L257.84480664826197,177.23020981700293" class="edge section-edge-2 edge-depth-1"/><path d="M 382.63912829551987,123.70723081093494 L 349.5121075334306,97.3544564102327 L316.3850867713412,71.00168200953044" class="edge section-edge-2 edge-depth-2"/><path d="M 395.54537157369356,118.09096721355175 L 398.24808608165154,83.47273043711292 L400.9508005896095,48.854493660674066" class="edge section-edge-2 edge-depth-2"/><path d="M 406.4636771383486,124.16105596293723 L 441.88267629978213,98.12422914258164 L477.30167546121567,72.08740232222604" class="edge section-edge-2 edge-depth-2"/><path d="M 395.1809116464488,221.90584645663142 L 394.8471558510113,184.97534740425388 L394.51340005557375,148.04484835187634" class="edge section-edge-2 edge-depth-1"/><path d="M 206.00547172209434,273.14949485061885 L 158.42633895764976,297.52718331557975 L110.84720619320518,321.90487178054065" class="edge section-edge-2 edge-depth-2"/><path d="M 204.36535961546514,265.758272108514 L 142.09167449167023,263.4678288699314 L79.81798936787533,261.1773856313488" class="edge section-edge-2 edge-depth-2"/><path d="M 232.61060717504722,273.33063017298457 L 277.16156175363415,296.9280953483984 L321.71251633222107,320.52556052381226" class="edge section-edge-2 edge-depth-2"/><path d="M 380.5216162772849,239.37755825997357 L 307.33584556806795,251.6074186851564 L234.15007485885096,263.83727911033924" class="edge section-edge-2 edge-depth-1"/><path d="M 484.09173239691313,341.0478036552745 L 444.5695423813312,294.68418629061915 L405.04735236574925,248.3205689259638" class="edge section-edge-2 edge-depth-0"/><path d="M 306.88684342257335,435.3736096028672 L 300.8006939497135,472.69786819937167 L294.71454447685363,510.02212679587615" class="edge section-edge-3 edge-depth-1"/><path d="M 294.9419412597452,424.9074308442521 L 208.169763013185,451.1240719174324 L121.39758476662479,477.3407129906127" class="edge section-edge-3 edge-depth-1"/><path d="M 294.37060162488063,419.12459512482275 L 205.13075471760868,410.4904186919904 L115.89090781033673,401.856242259158" class="edge section-edge-3 edge-depth-1"/><path d="M 479.75054852267635,357.657065062043 L 401.5617502589122,386.51613775062924 L323.372951995148,415.3752104392155" class="edge section-edge-3 edge-depth-0"/></g><g class="mindmap-nodes"><g class="mindmap-node section--1 section-root" transform="translate(435.91636760986694, 324.76313940989587)"><g transform="translate(57.90625, 27.699999237060545)"><circle id="node-0" class="node-bkg node-circle" r="57.90625"/></g><g dy="1em" alignment-baseline="middle" dominant-baseline="middle" text-anchor="middle" transform="translate(57.90625, 5)"><g><rect class="background" style="stroke: none"/><text y="-10.1" style=""><tspan class="text-outer-tspan" x="0" y="-0.1em" dy="1.1em"><tspan font-style="normal" class="text-inner-tspan" font-weight="normal">Collaborating</tspan></tspan><tspan class="text-outer-tspan" x="0" y="1em" dy="1.1em"><tspan font-style="normal" class="text-inner-tspan" font-weight="normal">Trip</tspan><tspan font-style="normal" class="text-inner-tspan" font-weight="normal"> Planning</tspan></tspan></text></g></g></g><g class="mindmap-node section-0" transform="translate(627.1928617712574, 284.35161887546803)"><g><path id="node-1" class="node-bkg node-no-border" d="M0 32.8 v-27.799999999999997 q0,-5 5,-5 h103.15625 q5,0 5,5 v32.8 H0 Z"/><line class="node-line-0" x1="0" y1="37.8" x2="113.15625" y2="37.8"/></g><g dy="1em" alignment-baseline="middle" dominant-baseline="middle" text-anchor="middle" transform="translate(56.578125, 5)"><g><rect class="background" style="stroke: none"/><text y="-10.1" style=""><tspan class="text-outer-tspan" x="0" y="-0.1em" dy="1.1em"><tspan font-style="normal" class="text-inner-tspan" font-weight="normal">User</tspan><tspan font-style="normal" class="text-inner-tspan" font-weight="normal"> Journey</tspan></tspan></text></g></g></g><g class="mindmap-node section-1" transform="translate(568.7110032655319, 432.0564727203549)"><g><path id="node-11" class="node-bkg node-no-border" d="M0 32.8 v-27.799999999999997 q0,-5 5,-5 h110.015625 q5,0 5,5 v32.8 H0 Z"/><line class="node-line-1" x1="0" y1="37.8" x2="120.015625" y2="37.8"/></g><g dy="1em" alignment-baseline="middle" dominant-baseline="middle" text-anchor="middle" transform="translate(60.0078125, 5)"><g><rect class="background" style="stroke: none"/><text y="-10.1" style=""><tspan class="text-outer-tspan" x="0" y="-0.1em" dy="1.1em"><tspan font-style="normal" class="text-inner-tspan" font-weight="normal">Role</tspan><tspan font-style="normal" class="text-inner-tspan" font-weight="normal"> Lifecycle</tspan></tspan></text></g></g></g><g class="mindmap-node section-2" transform="translate(326.36334215279544, 218.00523393428193)"><g><path id="node-22" class="node-bkg node-no-border" d="M0 32.8 v-27.799999999999997 q0,-5 5,-5 h127.90625 q5,0 5,5 v32.8 H0 Z"/><line class="node-line-2" x1="0" y1="37.8" x2="137.90625" y2="37.8"/></g><g dy="1em" alignment-baseline="middle" dominant-baseline="middle" text-anchor="middle" transform="translate(68.953125, 5)"><g><rect class="background" style="stroke: none"/><text y="-10.1" style=""><tspan class="text-outer-tspan" x="0" y="-0.1em" dy="1.1em"><tspan font-style="normal" class="text-inner-tspan" font-weight="normal">Feature</tspan><tspan font-style="normal" class="text-inner-tspan" font-weight="normal"> Modules</tspan></tspan></text></g></g></g><g class="mindmap-node section-3" transform="translate(239.01963290795743, 401.6691368543021)"><g><path id="node-39" class="node-bkg node-no-border" d="M0 32.8 v-27.799999999999997 q0,-5 5,-5 h130.5625 q5,0 5,5 v32.8 H0 Z"/><line class="node-line-3" x1="0" y1="37.8" x2="140.5625" y2="37.8"/></g><g dy="1em" alignment-baseline="middle" dominant-baseline="middle" text-anchor="middle" transform="translate(70.28125, 5)"><g><rect class="background" style="stroke: none"/><text y="-10.1" style=""><tspan class="text-outer-tspan" x="0" y="-0.1em" dy="1.1em"><tspan font-style="normal" class="text-inner-tspan" font-weight="normal">System</tspan><tspan font-style="normal" class="text-inner-tspan" font-weight="normal"> Response</tspan></tspan></text></g></g></g><g class="mindmap-node section-0" transform="translate(489.30421009069664, 259.5220800438815)"><g><path id="node-2" class="node-bkg node-no-border" d="M0 32.8 v-27.799999999999997 q0,-5 5,-5 h78.375 q5,0 5,5 v32.8 H0 Z"/><line class="node-line-0" x1="0" y1="37.8" x2="88.375" y2="37.8"/></g><g dy="1em" alignment-baseline="middle" dominant-baseline="middle" text-anchor="middle" transform="translate(44.1875, 5)"><g><rect class="background" style="stroke: none"/><text y="-10.1" style=""><tspan class="text-outer-tspan" x="0" y="-0.1em" dy="1.1em"><tspan font-style="normal" class="text-inner-tspan" font-weight="normal">Open</tspan><tspan font-style="normal" class="text-inner-tspan" font-weight="normal"> App</tspan></tspan></text></g></g></g><g class="icon mindmap-node section-0" transform="translate(805.1382084466629, 249.74093255246484)"><g><path id="node-3" class="node-bkg node-no-border" d="M0 32.8 v-27.799999999999997 q0,-5 5,-5 h117.828125 q5,0 5,5 v32.8 H0 Z"/><line class="node-line-0" x1="0" y1="37.8" x2="127.828125" y2="37.8"/></g><g dy="1em" alignment-baseline="middle" dominant-baseline="middle" text-anchor="middle" transform="translate(63.9140625, 5)"><g><rect class="background" style="stroke: none"/><text y="-10.1" style=""><tspan class="text-outer-tspan" x="0" y="-0.1em" dy="1.1em"><tspan font-style="normal" class="text-inner-tspan" font-weight="normal">Authenticated?</tspan></tspan></text></g></g></g><g class="mindmap-node section-0" transform="translate(677.3295184773053, 200.8951491706256)"><g><path id="node-8" class="node-bkg node-no-border" d="M0 32.8 v-27.799999999999997 q0,-5 5,-5 h123 q5,0 5,5 v32.8 H0 Z"/><line class="node-line-0" x1="0" y1="37.8" x2="133" y2="37.8"/></g><g dy="1em" alignment-baseline="middle" dominant-baseline="middle" text-anchor="middle" transform="translate(66.5, 5)"><g><rect class="background" style="stroke: none"/><text y="-10.1" style=""><tspan class="text-outer-tspan" x="0" y="-0.1em" dy="1.1em"><tspan font-style="normal" class="text-inner-tspan" font-weight="normal">Trips</tspan><tspan font-style="normal" class="text-inner-tspan" font-weight="normal"> Dashboard</tspan></tspan></text></g></g></g><g class="mindmap-node section-0" transform="translate(637.4547780252035, 369.41088288000503)"><g><path id="node-9" class="node-bkg node-no-border" d="M0 32.8 v-27.799999999999997 q0,-5 5,-5 h89.765625 q5,0 5,5 v32.8 H0 Z"/><line class="node-line-0" x1="0" y1="37.8" x2="99.765625" y2="37.8"/></g><g dy="1em" alignment-baseline="middle" dominant-baseline="middle" text-anchor="middle" transform="translate(49.8828125, 5)"><g><rect class="background" style="stroke: none"/><text y="-10.1" style=""><tspan class="text-outer-tspan" x="0" y="-0.1em" dy="1.1em"><tspan font-style="normal" class="text-inner-tspan" font-weight="normal">Create</tspan><tspan font-style="normal" class="text-inner-tspan" font-weight="normal"> Trip</tspan></tspan></text></g></g></g><g class="mindmap-node section-0" transform="translate(784.4411258866562, 331.7723920677537)"><g><path id="node-10" class="node-bkg node-no-border" d="M0 32.8 v-27.799999999999997 q0,-5 5,-5 h159.984375 q5,0 5,5 v32.8 H0 Z"/><line class="node-line-0" x1="0" y1="37.8" x2="169.984375" y2="37.8"/></g><g dy="1em" alignment-baseline="middle" dominant-baseline="middle" text-anchor="middle" transform="translate(84.9921875, 5)"><g><rect class="background" style="stroke: none"/><text y="-10.1" style=""><tspan class="text-outer-tspan" x="0" y="-0.1em" dy="1.1em"><tspan font-style="normal" class="text-inner-tspan" font-weight="normal">Open</tspan><tspan font-style="normal" class="text-inner-tspan" font-weight="normal"> Trip</tspan><tspan font-style="normal" class="text-inner-tspan" font-weight="normal"> Workspace</tspan></tspan></text></g></g></g><g class="mindmap-node section-1" transform="translate(673.4003769176234, 491.13496003179705)"><g><path id="node-12" class="node-bkg node-no-border" d="M0 32.8 v-27.799999999999997 q0,-5 5,-5 h188.859375 q5,0 5,5 v32.8 H0 Z"/><line class="node-line-1" x1="0" y1="37.8" x2="198.859375" y2="37.8"/></g><g dy="1em" alignment-baseline="middle" dominant-baseline="middle" text-anchor="middle" transform="translate(99.4296875, 5)"><g><rect class="background" style="stroke: none"/><text y="-10.1" style=""><tspan class="text-outer-tspan" x="0" y="-0.1em" dy="1.1em"><tspan font-style="normal" class="text-inner-tspan" font-weight="normal">Creator</tspan><tspan font-style="normal" class="text-inner-tspan" font-weight="normal"> becomes</tspan><tspan font-style="normal" class="text-inner-tspan" font-weight="normal"> OWNER</tspan></tspan></text></g></g></g><g class="mindmap-node section-1" transform="translate(759.4965201640514, 424.65170550795426)"><g><path id="node-13" class="node-bkg node-no-border" d="M0 32.8 v-27.799999999999997 q0,-5 5,-5 h112.71875 q5,0 5,5 v32.8 H0 Z"/><line class="node-line-1" x1="0" y1="37.8" x2="122.71875" y2="37.8"/></g><g dy="1em" alignment-baseline="middle" dominant-baseline="middle" text-anchor="middle" transform="translate(61.359375, 5)"><g><rect class="background" style="stroke: none"/><text y="-10.1" style=""><tspan class="text-outer-tspan" x="0" y="-0.1em" dy="1.1em"><tspan font-style="normal" class="text-inner-tspan" font-weight="normal">Invite</tspan><tspan font-style="normal" class="text-inner-tspan" font-weight="normal"> Member</tspan></tspan></text></g></g></g><g class="mindmap-node section-1" transform="translate(403.66074192196834, 492.6650873302177)"><g><path id="node-16" class="node-bkg node-no-border" d="M0 32.8 v-27.799999999999997 q0,-5 5,-5 h200.265625 q5,0 5,5 v32.8 H0 Z"/><line class="node-line-1" x1="0" y1="37.8" x2="210.265625" y2="37.8"/></g><g dy="1em" alignment-baseline="middle" dominant-baseline="middle" text-anchor="middle" transform="translate(105.1328125, 5)"><g><rect class="background" style="stroke: none"/><text y="-10.1" style=""><tspan class="text-outer-tspan" x="0" y="-0.1em" dy="1.1em"><tspan font-style="normal" class="text-inner-tspan" font-weight="normal">Member</tspan><tspan font-style="normal" class="text-inner-tspan" font-weight="normal"> accepts</tspan><tspan font-style="normal" class="text-inner-tspan" font-weight="normal"> invitation</tspan></tspan></text></g></g></g><g class="mindmap-node section-1" transform="translate(407.32187134750984, 422.6328266789345)"><g><path id="node-17" class="node-bkg node-no-border" d="M0 32.8 v-27.799999999999997 q0,-5 5,-5 h105.859375 q5,0 5,5 v32.8 H0 Z"/><line class="node-line-1" x1="0" y1="37.8" x2="115.859375" y2="37.8"/></g><g dy="1em" alignment-baseline="middle" dominant-baseline="middle" text-anchor="middle" transform="translate(57.9296875, 5)"><g><rect class="background" style="stroke: none"/><text y="-10.1" style=""><tspan class="text-outer-tspan" x="0" y="-0.1em" dy="1.1em"><tspan font-style="normal" class="text-inner-tspan" font-weight="normal">Role</tspan><tspan font-style="normal" class="text-inner-tspan" font-weight="normal"> assigned</tspan></tspan></text></g></g></g><g class="mindmap-node section-1" transform="translate(592.8401226169169, 537.0138636727155)"><g><path id="node-18" class="node-bkg node-no-border" d="M0 32.8 v-27.799999999999997 q0,-5 5,-5 h88.5625 q5,0 5,5 v32.8 H0 Z"/><line class="node-line-1" x1="0" y1="37.8" x2="98.5625" y2="37.8"/></g><g dy="1em" alignment-baseline="middle" dominant-baseline="middle" text-anchor="middle" transform="translate(49.28125, 5)"><g><rect class="background" style="stroke: none"/><text y="-10.1" style=""><tspan class="text-outer-tspan" x="0" y="-0.1em" dy="1.1em"><tspan font-style="normal" class="text-inner-tspan" font-weight="normal">Role</tspan><tspan font-style="normal" class="text-inner-tspan" font-weight="normal"> Check</tspan></tspan></text></g></g></g><g class="mindmap-node section-2" transform="translate(483.8587190753899, 149.1272147277466)"><g><path id="node-23" class="node-bkg node-no-border" d="M0 32.8 v-27.799999999999997 q0,-5 5,-5 h70.875 q5,0 5,5 v32.8 H0 Z"/><line class="node-line-2" x1="0" y1="37.8" x2="80.875" y2="37.8"/></g><g dy="1em" alignment-baseline="middle" dominant-baseline="middle" text-anchor="middle" transform="translate(40.4375, 5)"><g><rect class="background" style="stroke: none"/><text y="-10.1" style=""><tspan class="text-outer-tspan" x="0" y="-0.1em" dy="1.1em"><tspan font-style="normal" class="text-inner-tspan" font-weight="normal">Planning</tspan></tspan></text></g></g></g><g class="mindmap-node section-2" transform="translate(185.90558412072562, 152.35733816042102)"><g><path id="node-27" class="node-bkg node-no-border" d="M0 32.8 v-27.799999999999997 q0,-5 5,-5 h106.359375 q5,0 5,5 v32.8 H0 Z"/><line class="node-line-2" x1="0" y1="37.8" x2="116.359375" y2="37.8"/></g><g dy="1em" alignment-baseline="middle" dominant-baseline="middle" text-anchor="middle" transform="translate(58.1796875, 5)"><g><rect class="background" style="stroke: none"/><text y="-10.1" style=""><tspan class="text-outer-tspan" x="0" y="-0.1em" dy="1.1em"><tspan font-style="normal" class="text-inner-tspan" font-weight="normal">Collaboration</tspan></tspan></text></g></g></g><g class="mindmap-node section-2" transform="translate(338.8856570492271, 114.14546087422582)"><g><path id="node-31" class="node-bkg node-no-border" d="M0 32.8 v-27.799999999999997 q0,-5 5,-5 h100.984375 q5,0 5,5 v32.8 H0 Z"/><line class="node-line-2" x1="0" y1="37.8" x2="110.984375" y2="37.8"/></g><g dy="1em" alignment-baseline="middle" dominant-baseline="middle" text-anchor="middle" transform="translate(55.4921875, 5)"><g><rect class="background" style="stroke: none"/><text y="-10.1" style=""><tspan class="text-outer-tspan" x="0" y="-0.1em" dy="1.1em"><tspan font-style="normal" class="text-inner-tspan" font-weight="normal">Organization</tspan></tspan></text></g></g></g><g class="mindmap-node section-2" transform="translate(177.10522398334047, 247.4096034360309)"><g><path id="node-35" class="node-bkg node-no-border" d="M0 32.8 v-27.799999999999997 q0,-5 5,-5 h74.5 q5,0 5,5 v32.8 H0 Z"/><line class="node-line-2" x1="0" y1="37.8" x2="84.5" y2="37.8"/></g><g dy="1em" alignment-baseline="middle" dominant-baseline="middle" text-anchor="middle" transform="translate(42.25, 5)"><g><rect class="background" style="stroke: none"/><text y="-10.1" style=""><tspan class="text-outer-tspan" x="0" y="-0.1em" dy="1.1em"><tspan font-style="normal" class="text-inner-tspan" font-weight="normal">Analytics</tspan></tspan></text></g></g></g><g class="mindmap-node section-3" transform="translate(208.33175499146955, 497.1266003073807)"><g><path id="node-40" class="node-bkg node-no-border" d="M0 50.39999847412109 v-45.39999847412109 q0,-5 5,-5 h157.9375 q5,0 5,5 v50.39999847412109 H0 Z"/><line class="node-line-3" x1="0" y1="55.39999847412109" x2="167.9375" y2="55.39999847412109"/></g><g dy="1em" alignment-baseline="middle" dominant-baseline="middle" text-anchor="middle" transform="translate(83.96875, 5)"><g><rect class="background" style="stroke: none"/><text y="-10.1" style=""><tspan class="text-outer-tspan" x="0" y="-0.1em" dy="1.1em"><tspan font-style="normal" class="text-inner-tspan" font-weight="normal">Backend</tspan><tspan font-style="normal" class="text-inner-tspan" font-weight="normal"> API</tspan><tspan font-style="normal" class="text-inner-tspan" font-weight="normal"> updates</tspan></tspan><tspan class="text-outer-tspan" x="0" y="1em" dy="1.1em"><tspan font-style="normal" class="text-inner-tspan" font-weight="normal">MongoDB</tspan></tspan></text></g></g></g><g class="mindmap-node section-3" transform="translate(30.93708061841255, 453.97900774350217)"><g><path id="node-41" class="node-bkg node-no-border" d="M0 50.39999847412109 v-45.39999847412109 q0,-5 5,-5 h142.203125 q5,0 5,5 v50.39999847412109 H0 Z"/><line class="node-line-3" x1="0" y1="55.39999847412109" x2="152.203125" y2="55.39999847412109"/></g><g dy="1em" alignment-baseline="middle" dominant-baseline="middle" text-anchor="middle" transform="translate(76.1015625, 5)"><g><rect class="background" style="stroke: none"/><text y="-10.1" style=""><tspan class="text-outer-tspan" x="0" y="-0.1em" dy="1.1em"><tspan font-style="normal" class="text-inner-tspan" font-weight="normal">TanStack</tspan><tspan font-style="normal" class="text-inner-tspan" font-weight="normal"> Query</tspan></tspan><tspan class="text-outer-tspan" x="0" y="1em" dy="1.1em"><tspan font-style="normal" class="text-inner-tspan" font-weight="normal">refetch/invalidate</tspan></tspan></text></g></g></g><g class="mindmap-node section-3" transform="translate(15.827814027259933, 381.5117005296787)"><g><path id="node-42" class="node-bkg node-no-border" d="M0 32.8 v-27.799999999999997 q0,-5 5,-5 h160.265625 q5,0 5,5 v32.8 H0 Z"/><line class="node-line-3" x1="0" y1="37.8" x2="170.265625" y2="37.8"/></g><g dy="1em" alignment-baseline="middle" dominant-baseline="middle" text-anchor="middle" transform="translate(85.1328125, 5)"><g><rect class="background" style="stroke: none"/><text y="-10.1" style=""><tspan class="text-outer-tspan" x="0" y="-0.1em" dy="1.1em"><tspan font-style="normal" class="text-inner-tspan" font-weight="normal">Updated</tspan><tspan font-style="normal" class="text-inner-tspan" font-weight="normal"> UI</tspan><tspan font-style="normal" class="text-inner-tspan" font-weight="normal"> rendered</tspan></tspan></text></g></g></g><g class="mindmap-node section-0" transform="translate(987.6767893884896, 212.42349263566734)"><g><path id="node-4" class="node-bkg node-no-border" d="M0 32.8 v-27.799999999999997 q0,-5 5,-5 h28.796875 q5,0 5,5 v32.8 H0 Z"/><line class="node-line-0" x1="0" y1="37.8" x2="38.796875" y2="37.8"/></g><g dy="1em" alignment-baseline="middle" dominant-baseline="middle" text-anchor="middle" transform="translate(19.3984375, 5)"><g><rect class="background" style="stroke: none"/><text y="-10.1" style=""><tspan class="text-outer-tspan" x="0" y="-0.1em" dy="1.1em"><tspan font-style="normal" class="text-inner-tspan" font-weight="normal">No</tspan></tspan></text></g></g></g><g class="mindmap-node section-0" transform="translate(872.5024892303466, 159.5414287254414)"><g><path id="node-7" class="node-bkg node-no-border" d="M0 32.8 v-27.799999999999997 q0,-5 5,-5 h32.65625 q5,0 5,5 v32.8 H0 Z"/><line class="node-line-0" x1="0" y1="37.8" x2="42.65625" y2="37.8"/></g><g dy="1em" alignment-baseline="middle" dominant-baseline="middle" text-anchor="middle" transform="translate(21.328125, 5)"><g><rect class="background" style="stroke: none"/><text y="-10.1" style=""><tspan class="text-outer-tspan" x="0" y="-0.1em" dy="1.1em"><tspan font-style="normal" class="text-inner-tspan" font-weight="normal">Yes</tspan></tspan></text></g></g></g><g class="mindmap-node section-1" transform="translate(914.8650511437681, 484.9962195047725)"><g><path id="node-14" class="node-bkg node-no-border" d="M0 32.8 v-27.799999999999997 q0,-5 5,-5 h61.34375 q5,0 5,5 v32.8 H0 Z"/><line class="node-line-1" x1="0" y1="37.8" x2="71.34375" y2="37.8"/></g><g dy="1em" alignment-baseline="middle" dominant-baseline="middle" text-anchor="middle" transform="translate(35.671875, 5)"><g><rect class="background" style="stroke: none"/><text y="-10.1" style=""><tspan class="text-outer-tspan" x="0" y="-0.1em" dy="1.1em"><tspan font-style="normal" class="text-inner-tspan" font-weight="normal">EDITOR</tspan></tspan></text></g></g></g><g class="mindmap-node section-1" transform="translate(939.0196378622381, 396.3794679996346)"><g><path id="node-15" class="node-bkg node-no-border" d="M0 32.8 v-27.799999999999997 q0,-5 5,-5 h63.9375 q5,0 5,5 v32.8 H0 Z"/><line class="node-line-1" x1="0" y1="37.8" x2="73.9375" y2="37.8"/></g><g dy="1em" alignment-baseline="middle" dominant-baseline="middle" text-anchor="middle" transform="translate(36.96875, 5)"><g><rect class="background" style="stroke: none"/><text y="-10.1" style=""><tspan class="text-outer-tspan" x="0" y="-0.1em" dy="1.1em"><tspan font-style="normal" class="text-inner-tspan" font-weight="normal">VIEWER</tspan></tspan></text></g></g></g><g class="mindmap-node section-1" transform="translate(749.4765723156356, 577.7661821221328)"><g><path id="node-19" class="node-bkg node-no-border" d="M0 32.8 v-27.799999999999997 q0,-5 5,-5 h150.546875 q5,0 5,5 v32.8 H0 Z"/><line class="node-line-1" x1="0" y1="37.8" x2="160.546875" y2="37.8"/></g><g dy="1em" alignment-baseline="middle" dominant-baseline="middle" text-anchor="middle" transform="translate(80.2734375, 5)"><g><rect class="background" style="stroke: none"/><text y="-10.1" style=""><tspan class="text-outer-tspan" x="0" y="-0.1em" dy="1.1em"><tspan font-style="normal" class="text-inner-tspan" font-weight="normal">OWNER:</tspan><tspan font-style="normal" class="text-inner-tspan" font-weight="normal"> Full</tspan><tspan font-style="normal" class="text-inner-tspan" font-weight="normal"> access</tspan></tspan></text></g></g></g><g class="mindmap-node section-1" transform="translate(354.2228210591518, 588.4461895171825)"><g><path id="node-20" class="node-bkg node-no-border" d="M0 50.39999847412109 v-45.39999847412109 q0,-5 5,-5 h172.46875 q5,0 5,5 v50.39999847412109 H0 Z"/><line class="node-line-1" x1="0" y1="55.39999847412109" x2="182.46875" y2="55.39999847412109"/></g><g dy="1em" alignment-baseline="middle" dominant-baseline="middle" text-anchor="middle" transform="translate(91.234375, 5)"><g><rect class="background" style="stroke: none"/><text y="-10.1" style=""><tspan class="text-outer-tspan" x="0" y="-0.1em" dy="1.1em"><tspan font-style="normal" class="text-inner-tspan" font-weight="normal">EDITOR:</tspan><tspan font-style="normal" class="text-inner-tspan" font-weight="normal"> Edit</tspan><tspan font-style="normal" class="text-inner-tspan" font-weight="normal"> +</tspan><tspan font-style="normal" class="text-inner-tspan" font-weight="normal"> invite</tspan><tspan font-style="normal" class="text-inner-tspan" font-weight="normal"> +</tspan></tspan><tspan class="text-outer-tspan" x="0" y="1em" dy="1.1em"><tspan font-style="normal" class="text-inner-tspan" font-weight="normal">comment</tspan></tspan></text></g></g></g><g class="mindmap-node section-1" transform="translate(573.8443457761614, 628.3149988540973)"><g><path id="node-21" class="node-bkg node-no-border" d="M0 32.8 v-27.799999999999997 q0,-5 5,-5 h193.859375 q5,0 5,5 v32.8 H0 Z"/><line class="node-line-1" x1="0" y1="37.8" x2="203.859375" y2="37.8"/></g><g dy="1em" alignment-baseline="middle" dominant-baseline="middle" text-anchor="middle" transform="translate(101.9296875, 5)"><g><rect class="background" style="stroke: none"/><text y="-10.1" style=""><tspan class="text-outer-tspan" x="0" y="-0.1em" dy="1.1em"><tspan font-style="normal" class="text-inner-tspan" font-weight="normal">VIEWER:</tspan><tspan font-style="normal" class="text-inner-tspan" font-weight="normal"> View</tspan><tspan font-style="normal" class="text-inner-tspan" font-weight="normal"> +</tspan><tspan font-style="normal" class="text-inner-tspan" font-weight="normal"> comment</tspan></tspan></text></g></g></g><g class="mindmap-node section-2" transform="translate(594.2822795754928, 210.25518500415342)"><g><path id="node-24" class="node-bkg node-no-border" d="M0 32.8 v-27.799999999999997 q0,-5 5,-5 h42.59375 q5,0 5,5 v32.8 H0 Z"/><line class="node-line-2" x1="0" y1="37.8" x2="52.59375" y2="37.8"/></g><g dy="1em" alignment-baseline="middle" dominant-baseline="middle" text-anchor="middle" transform="translate(26.296875, 5)"><g><rect class="background" style="stroke: none"/><text y="-10.1" style=""><tspan class="text-outer-tspan" x="0" y="-0.1em" dy="1.1em"><tspan font-style="normal" class="text-inner-tspan" font-weight="normal">Days</tspan></tspan></text></g></g></g><g class="mindmap-node section-2" transform="translate(554.1113417815191, 67.889765475981)"><g><path id="node-25" class="node-bkg node-no-border" d="M0 32.8 v-27.799999999999997 q0,-5 5,-5 h76.78125 q5,0 5,5 v32.8 H0 Z"/><line class="node-line-2" x1="0" y1="37.8" x2="86.78125" y2="37.8"/></g><g dy="1em" alignment-baseline="middle" dominant-baseline="middle" text-anchor="middle" transform="translate(43.390625, 5)"><g><rect class="background" style="stroke: none"/><text y="-10.1" style=""><tspan class="text-outer-tspan" x="0" y="-0.1em" dy="1.1em"><tspan font-style="normal" class="text-inner-tspan" font-weight="normal">Activities</tspan></tspan></text></g></g></g><g class="mindmap-node section-2" transform="translate(623.0982129209658, 129.71162453634497)"><g><path id="node-26" class="node-bkg node-no-border" d="M0 32.8 v-27.799999999999997 q0,-5 5,-5 h66.0625 q5,0 5,5 v32.8 H0 Z"/><line class="node-line-2" x1="0" y1="37.8" x2="76.0625" y2="37.8"/></g><g dy="1em" alignment-baseline="middle" dominant-baseline="middle" text-anchor="middle" transform="translate(38.03125, 5)"><g><rect class="background" style="stroke: none"/><text y="-10.1" style=""><tspan class="text-outer-tspan" x="0" y="-0.1em" dy="1.1em"><tspan font-style="normal" class="text-inner-tspan" font-weight="normal">Reorder</tspan></tspan></text></g></g></g><g class="mindmap-node section-2" transform="translate(148.39990241688815, 67.70090260445568)"><g><path id="node-28" class="node-bkg node-no-border" d="M0 32.8 v-27.799999999999997 q0,-5 5,-5 h73.703125 q5,0 5,5 v32.8 H0 Z"/><line class="node-line-2" x1="0" y1="37.8" x2="83.703125" y2="37.8"/></g><g dy="1em" alignment-baseline="middle" dominant-baseline="middle" text-anchor="middle" transform="translate(41.8515625, 5)"><g><rect class="background" style="stroke: none"/><text y="-10.1" style=""><tspan class="text-outer-tspan" x="0" y="-0.1em" dy="1.1em"><tspan font-style="normal" class="text-inner-tspan" font-weight="normal">Members</tspan></tspan></text></g></g></g><g class="mindmap-node section-2" transform="translate(81.00894243609343, 174.98792136622228)"><g><path id="node-29" class="node-bkg node-no-border" d="M0 32.8 v-27.799999999999997 q0,-5 5,-5 h47.171875 q5,0 5,5 v32.8 H0 Z"/><line class="node-line-2" x1="0" y1="37.8" x2="57.171875" y2="37.8"/></g><g dy="1em" alignment-baseline="middle" dominant-baseline="middle" text-anchor="middle" transform="translate(28.5859375, 5)"><g><rect class="background" style="stroke: none"/><text y="-10.1" style=""><tspan class="text-outer-tspan" x="0" y="-0.1em" dy="1.1em"><tspan font-style="normal" class="text-inner-tspan" font-weight="normal">Roles</tspan></tspan></text></g></g></g><g class="mindmap-node section-2" transform="translate(25.641833836942396, 105.86784530366026)"><g><path id="node-30" class="node-bkg node-no-border" d="M0 32.8 v-27.799999999999997 q0,-5 5,-5 h85.015625 q5,0 5,5 v32.8 H0 Z"/><line class="node-line-2" x1="0" y1="37.8" x2="95.015625" y2="37.8"/></g><g dy="1em" alignment-baseline="middle" dominant-baseline="middle" text-anchor="middle" transform="translate(47.5078125, 5)"><g><rect class="background" style="stroke: none"/><text y="-10.1" style=""><tspan class="text-outer-tspan" x="0" y="-0.1em" dy="1.1em"><tspan font-style="normal" class="text-inner-tspan" font-weight="normal">Comments</tspan></tspan></text></g></g></g><g class="mindmap-node section-2" transform="translate(258.84168301763395, 42.76345194623957)"><g><path id="node-32" class="node-bkg node-no-border" d="M0 32.8 v-27.799999999999997 q0,-5 5,-5 h81.609375 q5,0 5,5 v32.8 H0 Z"/><line class="node-line-2" x1="0" y1="37.8" x2="91.609375" y2="37.8"/></g><g dy="1em" alignment-baseline="middle" dominant-baseline="middle" text-anchor="middle" transform="translate(45.8046875, 5)"><g><rect class="background" style="stroke: none"/><text y="-10.1" style=""><tspan class="text-outer-tspan" x="0" y="-0.1em" dy="1.1em"><tspan font-style="normal" class="text-inner-tspan" font-weight="normal">Checklists</tspan></tspan></text></g></g></g><g class="mindmap-node section-2" transform="translate(375.67301511407595, 15)"><g><path id="node-33" class="node-bkg node-no-border" d="M0 32.8 v-27.799999999999997 q0,-5 5,-5 h42.890625 q5,0 5,5 v32.8 H0 Z"/><line class="node-line-2" x1="0" y1="37.8" x2="52.890625" y2="37.8"/></g><g dy="1em" alignment-baseline="middle" dominant-baseline="middle" text-anchor="middle" transform="translate(26.4453125, 5)"><g><rect class="background" style="stroke: none"/><text y="-10.1" style=""><tspan class="text-outer-tspan" x="0" y="-0.1em" dy="1.1em"><tspan font-style="normal" class="text-inner-tspan" font-weight="normal">Files</tspan></tspan></text></g></g></g><g class="mindmap-node section-2" transform="translate(454.48125805033715, 44.30299741093745)"><g><path id="node-34" class="node-bkg node-no-border" d="M0 32.8 v-27.799999999999997 q0,-5 5,-5 h59.8125 q5,0 5,5 v32.8 H0 Z"/><line class="node-line-2" x1="0" y1="37.8" x2="69.8125" y2="37.8"/></g><g dy="1em" alignment-baseline="middle" dominant-baseline="middle" text-anchor="middle" transform="translate(34.90625, 5)"><g><rect class="background" style="stroke: none"/><text y="-10.1" style=""><tspan class="text-outer-tspan" x="0" y="-0.1em" dy="1.1em"><tspan font-style="normal" class="text-inner-tspan" font-weight="normal">Budget</tspan></tspan></text></g></g></g><g class="mindmap-node section-2" transform="translate(56.95839143195906, 309.8447631951286)"><g><path id="node-36" class="node-bkg node-no-border" d="M0 32.8 v-27.799999999999997 q0,-5 5,-5 h71.078125 q5,0 5,5 v32.8 H0 Z"/><line class="node-line-2" x1="0" y1="37.8" x2="81.078125" y2="37.8"/></g><g dy="1em" alignment-baseline="middle" dominant-baseline="middle" text-anchor="middle" transform="translate(40.5390625, 5)"><g><rect class="background" style="stroke: none"/><text y="-10.1" style=""><tspan class="text-outer-tspan" x="0" y="-0.1em" dy="1.1em"><tspan font-style="normal" class="text-inner-tspan" font-weight="normal">Forecast</tspan></tspan></text></g></g></g><g class="mindmap-node section-2" transform="translate(15, 241.7260543038319)"><g><path id="node-37" class="node-bkg node-no-border" d="M0 32.8 v-27.799999999999997 q0,-5 5,-5 h89.65625 q5,0 5,5 v32.8 H0 Z"/><line class="node-line-2" x1="0" y1="37.8" x2="99.65625" y2="37.8"/></g><g dy="1em" alignment-baseline="middle" dominant-baseline="middle" text-anchor="middle" transform="translate(49.828125, 5)"><g><rect class="background" style="stroke: none"/><text y="-10.1" style=""><tspan class="text-outer-tspan" x="0" y="-0.1em" dy="1.1em"><tspan font-style="normal" class="text-inner-tspan" font-weight="normal">Settlement</tspan></tspan></text></g></g></g><g class="mindmap-node section-2" transform="translate(297.9991495239278, 308.64658726076595)"><g><path id="node-38" class="node-bkg node-no-border" d="M0 32.8 v-27.799999999999997 q0,-5 5,-5 h63.9375 q5,0 5,5 v32.8 H0 Z"/><line class="node-line-2" x1="0" y1="37.8" x2="73.9375" y2="37.8"/></g><g dy="1em" alignment-baseline="middle" dominant-baseline="middle" text-anchor="middle" transform="translate(36.96875, 5)"><g><rect class="background" style="stroke: none"/><text y="-10.1" style=""><tspan class="text-outer-tspan" x="0" y="-0.1em" dy="1.1em"><tspan font-style="normal" class="text-inner-tspan" font-weight="normal">Reports</tspan></tspan></text></g></g></g><g class="mindmap-node section-0" transform="translate(1012.1277852944993, 125.77452484248181)"><g><path id="node-5" class="node-bkg node-no-border" d="M0 32.8 v-27.799999999999997 q0,-5 5,-5 h67.75 q5,0 5,5 v32.8 H0 Z"/><line class="node-line-0" x1="0" y1="37.8" x2="77.75" y2="37.8"/></g><g dy="1em" alignment-baseline="middle" dominant-baseline="middle" text-anchor="middle" transform="translate(38.875, 5)"><g><rect class="background" style="stroke: none"/><text y="-10.1" style=""><tspan class="text-outer-tspan" x="0" y="-0.1em" dy="1.1em"><tspan font-style="normal" class="text-inner-tspan" font-weight="normal">Register</tspan></tspan></text></g></g></g><g class="mindmap-node section-0" transform="translate(1074.796659303805, 261.9140911241843)"><g><path id="node-6" class="node-bkg node-no-border" d="M0 32.8 v-27.799999999999997 q0,-5 5,-5 h48.03125 q5,0 5,5 v32.8 H0 Z"/><line class="node-line-0" x1="0" y1="37.8" x2="58.03125" y2="37.8"/></g><g dy="1em" alignment-baseline="middle" dominant-baseline="middle" text-anchor="middle" transform="translate(29.015625, 5)"><g><rect class="background" style="stroke: none"/><text y="-10.1" style=""><tspan class="text-outer-tspan" x="0" y="-0.1em" dy="1.1em"><tspan font-style="normal" class="text-inner-tspan" font-weight="normal">Login</tspan></tspan></text></g></g></g></g></svg>